<?xml version="1.0" encoding="UTF-8"?>
<svg width="120px" height="40px" viewBox="0 0 120 40" version="1.1" xmlns="http://www.w3.org/2000/svg" xmlns:xlink="http://www.w3.org/1999/xlink">
    <!-- Generator: Sketch 55.2 (78181) - https://sketchapp.com -->
    <title>Google_2015_logo</title>
    <desc>Created with Sketch.</desc>
    <g id="Screens" stroke="none" stroke-width="1" fill="none" fill-rule="evenodd">
        <g id="Open-Source-Home" transform="translate(-131.000000, -1348.000000)" fill="#1C2C49" fill-rule="nonzero">
            <g id="Group-2" transform="translate(131.000000, 1337.000000)">
                <g id="Google_2015_logo" transform="translate(0.000000, 11.000000)">
                    <path d="M51.4444444,20.9688889 C51.4444444,26.6444444 47.0044444,30.8266667 41.5555556,30.8266667 C36.1066667,30.8266667 31.6666667,26.6444444 31.6666667,20.9688889 C31.6666667,15.2533333 36.1066667,11.1111111 41.5555556,11.1111111 C47.0044444,11.1111111 51.4444444,15.2533333 51.4444444,20.9688889 Z M47.1155556,20.9688889 C47.1155556,17.4222222 44.5422222,14.9955556 41.5555556,14.9955556 C38.5688889,14.9955556 35.9955556,17.4222222 35.9955556,20.9688889 C35.9955556,24.48 38.5688889,26.9422222 41.5555556,26.9422222 C44.5422222,26.9422222 47.1155556,24.4755556 47.1155556,20.9688889 Z" id="Shape"></path>
                    <path d="M72.7777778,20.9688889 C72.7777778,26.6444444 68.3377778,30.8266667 62.8888889,30.8266667 C57.44,30.8266667 53,26.6444444 53,20.9688889 C53,15.2577778 57.44,11.1111111 62.8888889,11.1111111 C68.3377778,11.1111111 72.7777778,15.2533333 72.7777778,20.9688889 Z M68.4488889,20.9688889 C68.4488889,17.4222222 65.8755556,14.9955556 62.8888889,14.9955556 C59.9022222,14.9955556 57.3288889,17.4222222 57.3288889,20.9688889 C57.3288889,24.48 59.9022222,26.9422222 62.8888889,26.9422222 C65.8755556,26.9422222 68.4488889,24.4755556 68.4488889,20.9688889 Z" id="Shape"></path>
                    <path d="M93.2222222,11.7066667 L93.2222222,29.4044444 C93.2222222,36.6844444 88.9288889,39.6577778 83.8533333,39.6577778 C79.0755556,39.6577778 76.2,36.4622222 75.1155556,33.8488889 L78.8844444,32.28 C79.5555556,33.8844444 81.2,35.7777778 83.8488889,35.7777778 C87.0977778,35.7777778 89.1111111,33.7733333 89.1111111,30 L89.1111111,28.5822222 L88.96,28.5822222 C87.9911111,29.7777778 86.1244444,30.8222222 83.7688889,30.8222222 C78.84,30.8222222 74.3244444,26.5288889 74.3244444,21.0044444 C74.3244444,15.44 78.84,11.1111111 83.7688889,11.1111111 C86.12,11.1111111 87.9866667,12.1555556 88.96,13.3155556 L89.1111111,13.3155556 L89.1111111,11.7111111 L93.2222222,11.7111111 L93.2222222,11.7066667 Z M89.4177778,21.0044444 C89.4177778,17.5333333 87.1022222,14.9955556 84.1555556,14.9955556 C81.1688889,14.9955556 78.6666667,17.5333333 78.6666667,21.0044444 C78.6666667,24.44 81.1688889,26.9422222 84.1555556,26.9422222 C87.1022222,26.9422222 89.4177778,24.44 89.4177778,21.0044444 Z" id="Shape"></path>
                    <polygon id="Path" points="100 1.33333333 100 30.2222222 95.7777778 30.2222222 95.7777778 1.33333333"></polygon>
                    <path d="M116.453333,24.2133333 L119.813333,26.4533333 C118.728889,28.0577778 116.115556,30.8222222 111.6,30.8222222 C106,30.8222222 101.817778,26.4933333 101.817778,20.9644444 C101.817778,15.1022222 106.035556,11.1066667 111.115556,11.1066667 C116.231111,11.1066667 118.733333,15.1777778 119.551111,17.3777778 L120,18.4977778 L106.822222,23.9555556 C107.831111,25.9333333 109.4,26.9422222 111.6,26.9422222 C113.804444,26.9422222 115.333333,25.8577778 116.453333,24.2133333 Z M106.111111,20.6666667 L114.92,17.0088889 C114.435556,15.7777778 112.977778,14.92 111.262222,14.92 C109.062222,14.92 106,16.8622222 106.111111,20.6666667 L106.111111,20.6666667 Z" id="Shape"></path>
                    <path d="M15.6844444,18.4044444 L15.6844444,14.2222222 L29.7777778,14.2222222 C29.9155556,14.9511111 29.9866667,15.8133333 29.9866667,16.7466667 C29.9866667,19.8844444 29.1288889,23.7644444 26.3644444,26.5288889 C23.6755556,29.3288889 20.24,30.8222222 15.6888889,30.8222222 C7.25333333,30.8222222 0.16,23.9511111 0.16,15.5155556 C0.16,7.08 7.25333333,0.208888889 15.6888889,0.208888889 C20.3555556,0.208888889 23.68,2.04 26.1777778,4.42666667 L23.2266667,7.37777778 C21.4355556,5.69777778 19.0088889,4.39111111 15.6844444,4.39111111 C9.52444444,4.39111111 4.70666667,9.35555556 4.70666667,15.5155556 C4.70666667,21.6755556 9.52444444,26.64 15.6844444,26.64 C19.68,26.64 21.9555556,25.0355556 23.4133333,23.5777778 C24.5955556,22.3955556 25.3733333,20.7066667 25.68,18.4 L15.6844444,18.4044444 Z" id="Path"></path>
                </g>
            </g>
        </g>
    </g>
</svg>