<?xml version="1.0" encoding="UTF-8"?>
<svg width="80px" height="53px" viewBox="0 0 80 53" version="1.1" xmlns="http://www.w3.org/2000/svg" xmlns:xlink="http://www.w3.org/1999/xlink">
    <!-- Generator: Sketch 55.2 (78181) - https://sketchapp.com -->
    <title>Intel-logo</title>
    <desc>Created with Sketch.</desc>
    <g id="Screens" stroke="none" stroke-width="1" fill="none" fill-rule="evenodd">
        <g id="Open-Source-Home" transform="translate(-680.000000, -1337.000000)" fill="#1C2C49" fill-rule="nonzero">
            <g id="Group-2" transform="translate(131.000000, 1337.000000)">
                <g id="Intel-logo" transform="translate(549.000000, 0.000000)">
                    <path d="M78.676,15.258 C74.98,-2.79 39.938,-3.934 17.352,9.816 L17.352,11.336 C39.914,-0.266 71.918,-0.191 74.832,16.43 C75.809,21.93 72.711,27.66 67.176,30.96 L67.176,35.273 C73.832,32.832 80.66,24.933 78.676,15.258 M37.62,46.848 C22.04,48.285 5.797,46.02 3.52,33.844 C2.406,27.84 5.145,21.473 8.773,17.516 L8.773,15.402 C2.238,21.132 -1.305,28.387 0.738,36.953 C3.344,47.945 17.281,54.168 38.558,52.102 C46.98,51.285 57.996,48.574 65.66,44.367 L65.66,38.391 C58.703,42.535 47.203,45.961 37.621,46.848" id="Shape"></path>
                    <path d="M64.398,12.633 L60.313,12.633 L60.313,30.828 C60.313,32.961 61.343,34.816 64.398,35.113 L64.398,12.633 Z M15.746,19.277 L11.652,19.277 L11.648,31.164 C11.648,33.304 12.684,35.156 15.746,35.449 L15.746,19.277 Z M11.652,17.059 L15.734,17.059 L15.734,13.184 L11.652,13.184 L11.652,17.059 Z M40.215,35.262 C36.91,35.262 35.512,32.961 35.512,30.695 L35.512,14.91 L39.559,14.91 L39.559,19.273 L42.609,19.273 L42.609,22.547 L39.559,22.547 L39.559,30.445 C39.559,31.371 39.996,31.883 40.961,31.883 L42.609,31.883 L42.609,35.262 L40.215,35.262 L40.215,35.262 Z M50.96,22.355 C49.574,22.355 48.512,23.07 48.059,24.031 C47.797,24.609 47.699,25.062 47.672,25.773 L53.91,25.773 C53.832,24.031 53.043,22.355 50.96,22.355 L50.96,22.355 Z M47.672,28.535 C47.672,30.605 48.965,32.133 51.258,32.133 C53.055,32.133 53.941,31.633 54.98,30.605 L57.484,32.992 C55.879,34.578 54.195,35.539 51.23,35.539 C47.352,35.539 43.64,33.426 43.64,27.258 C43.64,21.984 46.887,19.004 51.14,19.004 C55.465,19.004 57.95,22.492 57.95,27.074 L57.95,28.535 L47.671,28.535 L47.672,28.535 Z M26.746,22.547 C27.934,22.547 28.43,23.133 28.43,24.086 L28.43,35.286 L32.48,35.286 L32.48,24.061 C32.48,21.788 31.27,19.281 27.71,19.281 L19.344,19.276 L19.344,35.284 L23.394,35.284 L23.394,22.547 L26.746,22.547 L26.746,22.547 Z" id="Shape"></path>
                </g>
            </g>
        </g>
    </g>
</svg>