<?xml version="1.0" encoding="UTF-8"?>
<svg width="120px" height="26px" viewBox="0 0 120 26" version="1.1" xmlns="http://www.w3.org/2000/svg" xmlns:xlink="http://www.w3.org/1999/xlink">
    <!-- Generator: Sketch 55.2 (78181) - https://sketchapp.com -->
    <title>Microsoft_logo_(2012)</title>
    <desc>Created with Sketch.</desc>
    <g id="Screens" stroke="none" stroke-width="1" fill="none" fill-rule="evenodd">
        <g id="Open-Source-Home" transform="translate(-416.000000, -1355.000000)" fill="#1C2C49" fill-rule="nonzero">
            <g id="Group-2" transform="translate(131.000000, 1337.000000)">
                <g id="Microsoft_logo_(2012)" transform="translate(285.000000, 18.000000)">
                    <path d="M42.3576159,14.9751938 L41.6423841,17.0310078 L41.5827815,17.0310078 C41.4635762,16.5674419 41.2450331,15.8620155 40.8874172,15.0155039 L37.0529801,5.24031008 L33.2980132,5.24031008 L33.2980132,20.820155 L35.781457,20.820155 L35.781457,11.2062016 C35.781457,10.6015504 35.781457,9.91627907 35.7615894,9.06976744 C35.7417219,8.64651163 35.7019868,8.32403101 35.6821192,8.08217054 L35.7417219,8.08217054 C35.8609272,8.68682171 36,9.13023256 36.0993377,9.4124031 L40.7086093,20.779845 L42.4569536,20.779845 L47.0264901,9.31162791 C47.1258278,9.0496124 47.2251656,8.5255814 47.3245033,8.08217054 L47.384106,8.08217054 C47.3245033,9.23100775 47.2847682,10.2589147 47.2649007,10.8837209 L47.2649007,20.7596899 L49.9072848,20.7596899 L49.9072848,5.2 L46.2913907,5.2 L42.3576159,14.9751938 L42.3576159,14.9751938 Z M52.410596,9.59379845 L54.9933775,9.59379845 L54.9933775,20.7596899 L52.410596,20.7596899 L52.410596,9.59379845 Z M53.7218543,4.87751938 C53.2847682,4.87751938 52.9271523,5.03875969 52.6291391,5.32093023 C52.3311258,5.60310078 52.1721854,5.96589147 52.1721854,6.40930233 C52.1721854,6.83255814 52.3311258,7.19534884 52.6291391,7.47751938 C52.9271523,7.75968992 53.2847682,7.90077519 53.7218543,7.90077519 C54.1589404,7.90077519 54.5364238,7.73953488 54.8145695,7.47751938 C55.1125828,7.19534884 55.2715232,6.83255814 55.2715232,6.40930233 C55.2715232,5.98604651 55.1125828,5.62325581 54.8145695,5.32093023 C54.5562914,5.03875969 54.1788079,4.87751938 53.7218543,4.87751938 L53.7218543,4.87751938 Z M64.1523179,9.49302326 C63.6754967,9.39224806 63.1788079,9.33178295 62.7019868,9.33178295 C61.5298013,9.33178295 60.4569536,9.59379845 59.5629139,10.1178295 C58.6688742,10.6418605 57.9536424,11.3674419 57.4966887,12.2744186 C57.0198675,13.2015504 56.781457,14.2697674 56.781457,15.4992248 C56.781457,16.5674419 57.0198675,17.5147287 57.4768212,18.3813953 C57.9337748,19.227907 58.5695364,19.9131783 59.4238411,20.3767442 C60.2384106,20.8403101 61.192053,21.0821705 62.2649007,21.0821705 C63.4966887,21.0821705 64.5496689,20.820155 65.384106,20.3364341 L65.4039735,20.3162791 L65.4039735,17.8976744 L65.3046358,17.9782946 C64.9271523,18.2604651 64.4900662,18.5023256 64.0529801,18.6434109 C63.5960265,18.8046512 63.1788079,18.8852713 62.8211921,18.8852713 C61.7880795,18.8852713 60.9735099,18.5829457 60.397351,17.9178295 C59.8013245,17.2728682 59.5033113,16.3860465 59.5033113,15.2775194 C59.5033113,14.1286822 59.8013245,13.2217054 60.4172185,12.5565891 C61.0331126,11.8914729 61.8476821,11.5488372 62.8410596,11.5488372 C63.6754967,11.5488372 64.5298013,11.8310078 65.3046358,12.3953488 L65.4039735,12.475969 L65.4039735,9.91627907 L65.384106,9.89612403 C65.0463576,9.75503876 64.6688742,9.59379845 64.1523179,9.49302326 L64.1523179,9.49302326 Z M72.6754967,9.4124031 C72.0397351,9.4124031 71.4437086,9.61395349 70.9271523,10.0372093 C70.4900662,10.4 70.192053,10.924031 69.9337748,11.5488372 L69.9139073,11.5488372 L69.9139073,9.59379845 L67.3311258,9.59379845 L67.3311258,20.7596899 L69.9139073,20.7596899 L69.9139073,15.055814 C69.9139073,14.0883721 70.1125828,13.2821705 70.5496689,12.6976744 C70.986755,12.0930233 71.5430464,11.7906977 72.218543,11.7906977 C72.4569536,11.7906977 72.6953642,11.8511628 72.9933775,11.8914729 C73.2715232,11.972093 73.4701987,12.0527132 73.6092715,12.1534884 L73.7086093,12.2341085 L73.7086093,9.61395349 L73.6490066,9.59379845 C73.4701987,9.47286822 73.1125828,9.4124031 72.6754967,9.4124031 L72.6754967,9.4124031 Z M79.7086093,9.35193798 C77.9006623,9.35193798 76.4503311,9.89612403 75.4370861,10.9643411 C74.4039735,12.0325581 73.9072848,13.503876 73.9072848,15.3581395 C73.9072848,17.0914729 74.4238411,18.5023256 75.4172185,19.5302326 C76.410596,20.5379845 77.7615894,21.0620155 79.4503311,21.0620155 C81.218543,21.0620155 82.6291391,20.5178295 83.6423841,19.4294574 C84.6754967,18.3410853 85.1721854,16.8899225 85.1721854,15.096124 C85.1721854,13.3224806 84.6953642,11.9116279 83.7218543,10.8837209 C82.7880795,9.85581395 81.4172185,9.35193798 79.7086093,9.35193798 L79.7086093,9.35193798 Z M81.7748344,17.9379845 C81.2980132,18.5627907 80.5430464,18.8651163 79.6092715,18.8651163 C78.6754967,18.8651163 77.9205298,18.5627907 77.384106,17.8976744 C76.8476821,17.2728682 76.589404,16.3658915 76.589404,15.2170543 C76.589404,14.027907 76.8675497,13.1209302 77.384106,12.475969 C77.9205298,11.8310078 78.6556291,11.5085271 79.589404,11.5085271 C80.5033113,11.5085271 81.218543,11.8108527 81.7350993,12.4356589 C82.2516556,13.0604651 82.5298013,13.9674419 82.5298013,15.1565891 C82.4900662,16.3658915 82.2715232,17.3131783 81.7748344,17.9379845 L81.7748344,17.9379845 Z M90.9337748,14.2294574 C90.1192053,13.8868217 89.602649,13.6248062 89.3642384,13.4031008 C89.1655629,13.2015504 89.0662252,12.9193798 89.0662252,12.5565891 C89.0662252,12.2542636 89.1854305,11.951938 89.4834437,11.7503876 C89.781457,11.5488372 90.1192053,11.448062 90.615894,11.448062 C91.0529801,11.448062 91.5099338,11.5286822 91.9470199,11.6496124 C92.384106,11.7705426 92.781457,11.951938 93.0993377,12.1937984 L93.1986755,12.2744186 L93.1986755,9.81550388 L93.1390728,9.79534884 C92.8410596,9.6744186 92.4437086,9.55348837 91.9668874,9.45271318 C91.4900662,9.37209302 91.0529801,9.33178295 90.6953642,9.33178295 C89.4635762,9.33178295 88.4503311,9.63410853 87.6556291,10.2992248 C86.8609272,10.924031 86.4834437,11.7705426 86.4834437,12.7581395 C86.4834437,13.2821705 86.5629139,13.7457364 86.7417219,14.1286822 C86.9205298,14.5116279 87.1788079,14.8744186 87.5364238,15.1767442 C87.8940397,15.4589147 88.410596,15.7813953 89.1258278,16.0837209 C89.7218543,16.3457364 90.1788079,16.5472868 90.4569536,16.7085271 C90.7350993,16.8697674 90.9139073,17.0511628 91.0529801,17.1922481 C91.1523179,17.3534884 91.2119205,17.5550388 91.2119205,17.8170543 C91.2119205,18.5627907 90.6556291,18.9255814 89.5231788,18.9255814 C89.0860927,18.9255814 88.6291391,18.8449612 88.0927152,18.6635659 C87.5562914,18.4821705 87.0596026,18.220155 86.6423841,17.9178295 L86.5430464,17.8372093 L86.5430464,20.3968992 L86.602649,20.4170543 C86.9801325,20.5984496 87.4370861,20.7193798 87.9933775,20.8604651 C88.5496689,20.9612403 89.0463576,21.0418605 89.4834437,21.0418605 C90.8145695,21.0418605 91.9072848,20.7395349 92.6821192,20.0744186 C93.4768212,19.4294574 93.8940397,18.6031008 93.8940397,17.5348837 C93.8940397,16.7891473 93.6953642,16.124031 93.2582781,15.620155 C92.6821192,15.1364341 91.9668874,14.6325581 90.9337748,14.2294574 L90.9337748,14.2294574 Z M100.708609,9.35193798 C98.9006623,9.35193798 97.4503311,9.89612403 96.4370861,10.9643411 C95.4238411,12.0325581 94.9072848,13.503876 94.9072848,15.3581395 C94.9072848,17.0914729 95.4238411,18.5023256 96.4172185,19.5302326 C97.410596,20.5379845 98.7615894,21.0620155 100.450331,21.0620155 C102.218543,21.0620155 103.629139,20.5178295 104.642384,19.4294574 C105.675497,18.3410853 106.172185,16.8899225 106.172185,15.096124 C106.172185,13.3224806 105.695364,11.9116279 104.721854,10.8837209 C103.788079,9.85581395 102.417219,9.35193798 100.708609,9.35193798 L100.708609,9.35193798 Z M102.754967,17.9379845 C102.278146,18.5627907 101.523179,18.8651163 100.589404,18.8651163 C99.6357616,18.8651163 98.9006623,18.5627907 98.3642384,17.8976744 C97.8278146,17.2728682 97.5695364,16.3658915 97.5695364,15.2170543 C97.5695364,14.027907 97.8476821,13.1209302 98.3642384,12.475969 C98.9006623,11.8310078 99.6357616,11.5085271 100.569536,11.5085271 C101.463576,11.5085271 102.198675,11.8108527 102.715232,12.4356589 C103.231788,13.0604651 103.509934,13.9674419 103.509934,15.1565891 C103.509934,16.3658915 103.251656,17.3131783 102.754967,17.9379845 L102.754967,17.9379845 Z M119.980132,11.7503876 L119.980132,9.59379845 L117.377483,9.59379845 L117.377483,6.28837209 L117.298013,6.30852713 L114.834437,7.05426357 L114.774834,7.0744186 L114.774834,9.59379845 L110.880795,9.59379845 L110.880795,8.18294574 C110.880795,7.5379845 111.039735,7.03410853 111.317881,6.71162791 C111.596026,6.38914729 112.013245,6.22790698 112.529801,6.22790698 C112.887417,6.22790698 113.264901,6.30852713 113.682119,6.48992248 L113.781457,6.5503876 L113.781457,4.27286822 L113.721854,4.25271318 C113.364238,4.13178295 112.887417,4.05116279 112.271523,4.05116279 C111.496689,4.05116279 110.821192,4.23255814 110.205298,4.53488372 C109.589404,4.87751938 109.13245,5.34108527 108.794702,5.96589147 C108.456954,6.57054264 108.278146,7.25581395 108.278146,8.04186047 L108.278146,9.59379845 L106.470199,9.59379845 L106.470199,11.7302326 L108.278146,11.7302326 L108.278146,20.7596899 L110.880795,20.7596899 L110.880795,11.7503876 L114.774834,11.7503876 L114.774834,17.4945736 C114.774834,19.8527132 115.86755,21.0418605 118.05298,21.0418605 C118.410596,21.0418605 118.788079,20.9813953 119.145695,20.9209302 C119.523179,20.8403101 119.801325,20.7395349 119.960265,20.6589147 L119.980132,20.6387597 L119.980132,18.4821705 L119.880795,18.5627907 C119.721854,18.6635659 119.582781,18.744186 119.344371,18.8046512 C119.145695,18.8651163 118.966887,18.8852713 118.827815,18.8852713 C118.311258,18.8852713 117.953642,18.7643411 117.695364,18.4620155 C117.456954,18.179845 117.337748,17.7162791 117.337748,17.0310078 L117.337748,11.7503876 L119.980132,11.7503876 L119.980132,11.7503876 Z" id="Shape"></path>
                    <polygon id="Path" points="0 0 12.1788079 0 12.1788079 12.3550388 0 12.3550388"></polygon>
                    <polygon id="Path" points="13.4503311 0 25.6291391 0 25.6291391 12.3550388 13.4503311 12.3550388"></polygon>
                    <polygon id="Path" points="0 13.6449612 12.1788079 13.6449612 12.1788079 26 0 26"></polygon>
                    <polygon id="Path" points="13.4503311 13.6449612 25.6291391 13.6449612 25.6291391 26 13.4503311 26"></polygon>
                </g>
            </g>
        </g>
    </g>
</svg>