<?xml version="1.0" encoding="UTF-8"?>
<svg width="120px" height="18px" viewBox="0 0 120 18" version="1.1" xmlns="http://www.w3.org/2000/svg" xmlns:xlink="http://www.w3.org/1999/xlink">
    <!-- Generator: Sketch 55.2 (78181) - https://sketchapp.com -->
    <title>Toshiba_logo</title>
    <desc>Created with Sketch.</desc>
    <g id="Screens" stroke="none" stroke-width="1" fill="none" fill-rule="evenodd">
        <g id="Open-Source-Home" transform="translate(-1189.000000, -1355.000000)" fill="#1C2C49" fill-rule="nonzero">
            <g id="Group-2" transform="translate(131.000000, 1337.000000)">
                <g id="Toshiba_logo" transform="translate(1058.000000, 18.000000)">
                    <path d="M114.8175,17.672459 L120,17.672459 L114.6525,0.312786885 L107.2875,0.312491803 L101.94,17.6721639 L107.124,17.6721639 L108.069,14.4587213 L113.868,14.4587213 L114.8175,17.6721639 L114.8175,17.672459 Z M109.191,10.5986066 L110.955,4.60091803 L110.985,4.60091803 L112.749,10.5986066 L109.191,10.5986066 Z" id="path7"></path>
                    <path d="M25.872,17.9837705 C31.194,17.9837705 33.7665,17.0616393 34.131,12.3381148 C34.218,11.2141475 34.2345839,10.0602295 34.2345839,8.99055738 C34.236,7.92457377 34.218,6.76947541 34.131,5.64565574 C33.7665,0.920655738 31.194,0 25.872,0 C20.55,0 17.979,0.920655738 17.616,5.64565574 C17.5275,6.76947541 17.5095,7.92457377 17.5095,8.99055738 C17.511,10.0602295 17.5275,11.2141475 17.616,12.3381148 C17.979,17.0616393 20.55,17.9837705 25.872,17.9837705 L25.872,17.9837705 Z M22.5255,8.99055738 C22.5255,8.03729508 22.5495,7.47383607 22.5705,7.05570492 C22.7055,4.37621311 23.781,4.06386885 25.872,4.06386885 C27.9645,4.06386885 29.04,4.37621311 29.1735,7.05570492 C29.1945,7.47368852 29.22,8.03714754 29.22,8.99055738 C29.22,9.94691803 29.1945,10.5114098 29.1735,10.9285082 C29.04,13.6084426 27.9645,13.921377 25.872,13.921377 C23.781,13.921377 22.7055,13.6084426 22.5705,10.9285082 C22.5495,10.5114098 22.5255,9.94691803 22.5255,8.99055738 L22.5255,8.99055738 Z" id="path9"></path>
                    <polyline id="polyline11" points="0 0.320459016 0 4.64798361 5.2758 4.64798361 5.2758 17.6798361 10.55355 17.6798361 10.55355 4.64798361 15.8295 4.64798361 15.8295 0.320459016 0 0.320459016"></polyline>
                    <polyline id="polyline13" points="80.9775 17.672459 80.9775 0.312491803 75.969 0.312491803 75.969 17.672459 80.9775 17.672459"></polyline>
                    <polyline id="polyline15" points="60.825 6.65070492 60.825 0.312491803 55.845 0.312491803 55.845 17.672459 60.825 17.672459 60.825 10.9782295 66.612 10.9782295 66.612 17.672459 71.5905 17.672459 71.5905 0.312491803 66.612 0.312491803 66.612 6.65070492 60.825 6.65070492"></polyline>
                    <g id="g17" transform="translate(37.050000, 0.000000)">
                        <path d="M60.4005,8.59913115 C62.619,8.04127869 63.27,6.7377541 63.27,4.85365574 C63.27,1.03839344 60.8295,0.312344262 57.36,0.312344262 L48.3675,0.312344262 L48.3675,17.6720164 L57.8055,17.6720164 C62.151,17.6720164 63.612,15.8307049 63.612,12.9986557 C63.612,11.0241148 63.153,9.28195082 60.4005,8.59868852 L60.4005,8.59913115 Z M53.346,10.5416557 L56.799,10.5416557 C58.194,10.5416557 58.485,11.1427377 58.485,12.1203443 C58.485,13.0988361 57.939,13.701541 56.799,13.701541 L53.346,13.701541 L53.346,10.5416557 Z M53.346,4.28222951 L56.799,4.28222951 C57.7005,4.28222951 58.2585,4.70286885 58.2585,5.71455738 C58.2585,6.58180328 57.7065,7.11560656 56.799,7.11560656 L53.346,7.11560656 L53.346,4.28222951 Z" id="path19"></path>
                        <path d="M0.087,11.975459 L4.8345,11.975459 C4.839,12.817623 4.9485,13.3804918 5.364,13.6913607 C5.8365,14.041623 6.2595,14.1572951 7.662,14.1572951 C9.012,14.1572951 10.491,14.1572951 10.491,12.5218033 C10.491,11.232 9.6645,10.9376557 8.139,10.8576885 C4.356,10.6605738 2.988,10.555377 1.5795,9.52613115 C0.6195,8.82427869 0.1215,7.45790164 0.1215,5.61009836 C0.1215,2.46791803 1.236,1.36563934 2.844,0.596508197 C4.503,-0.197409836 11.0145,-0.197409836 12.7665,0.596508197 C14.97,1.59506557 15.0345,3.75683607 15.0345,5.76206557 L10.299,5.76206557 C10.29,4.7397541 10.056,4.45101639 9.8655,4.26083607 C9.3735,3.83178689 8.673,3.74119672 7.662,3.74119672 C6.438,3.74119672 5.022,3.7954918 5.022,5.25747541 C5.022,6.37288525 5.5125,6.83911475 6.7995,6.92114754 C8.568,7.03239344 12.0525,7.14201639 13.2945,7.86290164 C15.036,8.87606557 15.4875,10.2470164 15.4875,12.4837377 C15.4875,15.7160656 14.3115,16.6647541 12.675,17.3759016 C10.7865,18.1962295 4.479,18.1962295 2.4285,17.312459 C0.1335,16.3283607 0.087,14.3669508 0.087,11.975459" id="path21"></path>
                    </g>
                </g>
            </g>
        </g>
    </g>
</svg>