<?xml version="1.0" encoding="UTF-8"?>
<svg width="120px" height="27px" viewBox="0 0 120 27" version="1.1" xmlns="http://www.w3.org/2000/svg" xmlns:xlink="http://www.w3.org/1999/xlink">
    <!-- Generator: Sketch 55.2 (78181) - https://sketchapp.com -->
    <title>Group</title>
    <desc>Created with Sketch.</desc>
    <g id="Screens" stroke="none" stroke-width="1" fill="none" fill-rule="evenodd">
        <g id="Open-Source-Home" transform="translate(-934.000000, -1346.000000)" fill-rule="nonzero">
            <g id="Group-2" transform="translate(131.000000, 1337.000000)">
                <g id="Group" transform="translate(803.000000, 9.000000)">
                    <path d="M37.4488189,4.22470588 C37.007874,2.57294118 35.7165354,1.27058824 34.0787402,0.825882353 C31.0866142,0 19.1181102,0 19.1181102,0 C19.1181102,0 7.1496063,0 4.15748031,0.794117647 C2.5511811,1.23882353 1.22834646,2.57294118 0.787401575,4.22470588 C-2.98427949e-13,7.24235294 -2.98427949e-13,13.5 -2.98427949e-13,13.5 C-2.98427949e-13,13.5 -2.98427949e-13,19.7894118 0.787401575,22.7752941 C1.22834646,24.4270588 2.51968504,25.7294118 4.15748031,26.1741176 C7.18110236,27 19.1181102,27 19.1181102,27 C19.1181102,27 31.0866142,27 34.0787402,26.2058824 C35.7165354,25.7611765 37.007874,24.4588235 37.4488189,22.8070588 C38.2363812,19.7894118 38.2363812,13.5317647 38.2363812,13.5317647 C38.2363812,13.5317647 38.2677165,7.24235294 37.4488189,4.22470588 Z" id="Path" fill="#1C2C49"></path>
                    <polygon id="Path" fill="#FFFFFF" points="15.3070866 19.2811765 25.2598425 13.5 15.3070866 7.71882353"></polygon>
                    <path d="M55.5275591,24.5858824 C54.7716535,24.0776471 54.2362205,23.2835294 53.9212598,22.1717647 C53.6062992,21.0917647 53.4488189,19.6305882 53.4488189,17.8517647 L53.4488189,15.4058824 C53.4488189,13.5952941 53.6377953,12.1341176 53.984252,11.0223529 C54.3622047,9.91058824 54.9291339,9.11647059 55.6850394,8.60823529 C56.4724409,8.1 57.480315,7.84588235 58.7401575,7.84588235 C59.9685039,7.84588235 60.976378,8.1 61.7322835,8.60823529 C62.488189,9.11647059 63.023622,9.94235294 63.3700787,11.0223529 C63.7165354,12.1023529 63.9055118,13.5635294 63.9055118,15.4058824 L63.9055118,17.8517647 C63.9055118,19.6623529 63.7480315,21.0917647 63.4015748,22.2035294 C63.0551181,23.2835294 62.519685,24.1094118 61.7637795,24.6176471 C61.007874,25.1258824 59.9685039,25.38 58.6771654,25.38 C57.3543307,25.3482353 56.2834646,25.0941176 55.5275591,24.5858824 Z M59.7795276,21.9176471 C60,21.3776471 60.0944882,20.4564706 60.0944882,19.2176471 L60.0944882,13.9447059 C60.0944882,12.7376471 60,11.8482353 59.7795276,11.2764706 C59.5590551,10.7047059 59.2125984,10.4505882 58.6771654,10.4505882 C58.1732283,10.4505882 57.7952756,10.7364706 57.6062992,11.2764706 C57.3858268,11.8482353 57.2913386,12.7376471 57.2913386,13.9447059 L57.2913386,19.2176471 C57.2913386,20.4564706 57.3858268,21.3776471 57.6062992,21.9176471 C57.7952756,22.4576471 58.1732283,22.7435294 58.7086614,22.7435294 C59.2125984,22.7435294 59.5590551,22.4894118 59.7795276,21.9176471 Z" id="Shape" fill="#1C2C49"></path>
                    <path d="M113.669291,17.8835294 L113.669291,18.7411765 C113.669291,19.8211765 113.700787,20.6470588 113.76378,21.1870588 C113.826772,21.7270588 113.952756,22.14 114.173228,22.3623529 C114.362205,22.6164706 114.677165,22.7435294 115.11811,22.7435294 C115.685039,22.7435294 116.062992,22.5211765 116.283465,22.0764706 C116.503937,21.6317647 116.598425,20.9011765 116.629921,19.8529412 L119.874016,20.0435294 C119.905512,20.2023529 119.905512,20.3929412 119.905512,20.6470588 C119.905512,22.2035294 119.496063,23.3788235 118.645669,24.1411765 C117.795276,24.9035294 116.598425,25.2847059 115.055118,25.2847059 C113.19685,25.2847059 111.905512,24.6811765 111.149606,23.5058824 C110.393701,22.3305882 110.015748,20.52 110.015748,18.0423529 L110.015748,15.0882353 C110.015748,12.5470588 110.393701,10.7047059 111.181102,9.52941176 C111.968504,8.35411765 113.291339,7.78235294 115.149606,7.78235294 C116.440945,7.78235294 117.448819,8.03647059 118.141732,8.51294118 C118.834646,8.98941176 119.307087,9.75176471 119.590551,10.7364706 C119.874016,11.7529412 120,13.1505882 120,14.9294118 L120,17.82 L113.669291,17.82 L113.669291,17.8835294 Z M114.141732,10.7682353 C113.952756,11.0223529 113.826772,11.4035294 113.76378,11.9435294 C113.700787,12.4835294 113.669291,13.3094118 113.669291,14.4211765 L113.669291,15.6282353 L116.440945,15.6282353 L116.440945,14.4211765 C116.440945,13.3411765 116.409449,12.5152941 116.346457,11.9435294 C116.283465,11.3717647 116.125984,10.9905882 115.937008,10.7682353 C115.748031,10.5458824 115.433071,10.4188235 115.055118,10.4188235 C114.614173,10.3870588 114.330709,10.5141176 114.141732,10.7682353 Z" id="Shape" fill="#1C2C49"></path>
                    <path d="M46.3307087,17.5658824 L42.0472441,1.90588235 L45.7952756,1.90588235 L47.3070866,8.98941176 C47.6850394,10.7364706 47.9685039,12.2294118 48.1574803,13.4682353 L48.2519685,13.4682353 C48.3779528,12.5788235 48.6614173,11.1176471 49.1023622,9.02117647 L50.6771654,1.90588235 L54.4251969,1.90588235 L50.0787402,17.5658824 L50.0787402,25.0623529 L46.3622047,25.0623529 L46.3622047,17.5658824 L46.3307087,17.5658824 Z" id="Path" fill="#1C2C49"></path>
                    <path d="M76.0944882,8.16352941 L76.0944882,25.0941176 L73.1338583,25.0941176 L72.8188976,23.0294118 L72.7244094,23.0294118 C71.9370079,24.5858824 70.7086614,25.38 69.1023622,25.38 C68,25.38 67.1811024,24.9988235 66.6456693,24.2682353 C66.1102362,23.5376471 65.8582677,22.3941176 65.8582677,20.8058824 L65.8582677,8.16352941 L69.6377953,8.16352941 L69.6377953,20.5835294 C69.6377953,21.3458824 69.7322835,21.8858824 69.8897638,22.2035294 C70.0472441,22.5211765 70.3307087,22.68 70.7086614,22.68 C71.023622,22.68 71.3385827,22.5847059 71.6535433,22.3623529 C71.9685039,22.1717647 72.1889764,21.9176471 72.3149606,21.6 L72.3149606,8.16352941 L76.0944882,8.16352941 Z" id="Path" fill="#1C2C49"></path>
                    <path d="M95.4645669,8.16352941 L95.4645669,25.0941176 L92.503937,25.0941176 L92.1889764,23.0294118 L92.0944882,23.0294118 C91.3070866,24.5858824 90.0787402,25.38 88.4724409,25.38 C87.3700787,25.38 86.5511811,24.9988235 86.015748,24.2682353 C85.480315,23.5376471 85.2283465,22.3941176 85.2283465,20.8058824 L85.2283465,8.16352941 L89.007874,8.16352941 L89.007874,20.5835294 C89.007874,21.3458824 89.1023622,21.8858824 89.2598425,22.2035294 C89.4173228,22.5211765 89.7007874,22.68 90.0787402,22.68 C90.3937008,22.68 90.7086614,22.5847059 91.023622,22.3623529 C91.3385827,22.1717647 91.5590551,21.9176471 91.6850394,21.6 L91.6850394,8.16352941 L95.4645669,8.16352941 Z" id="Path" fill="#1C2C49"></path>
                    <polygon id="Path" fill="#1C2C49" points="86.3622047 4.98705882 82.6141732 4.98705882 82.6141732 25.0623529 78.9291339 25.0623529 78.9291339 4.98705882 75.1811024 4.98705882 75.1811024 1.90588235 86.3622047 1.90588235 86.3622047 4.98705882"></polygon>
                    <path d="M107.968504,10.8635294 C107.748031,9.78352941 107.370079,9.02117647 106.866142,8.54470588 C106.362205,8.06823529 105.637795,7.81411765 104.755906,7.81411765 C104.062992,7.81411765 103.401575,8.00470588 102.80315,8.41764706 C102.204724,8.79882353 101.732283,9.33882353 101.417323,9.97411765 L101.385827,9.97411765 L101.385827,1.04823529 L97.7322835,1.04823529 L97.7322835,25.0623529 L100.850394,25.0623529 L101.228346,23.4741176 L101.322835,23.4741176 C101.606299,24.0458824 102.047244,24.4905882 102.645669,24.84 C103.244094,25.1576471 103.874016,25.3482353 104.598425,25.3482353 C105.889764,25.3482353 106.80315,24.7447059 107.401575,23.5694118 C108,22.3941176 108.314961,20.52 108.314961,18.0105882 L108.314961,15.3423529 C108.283465,13.4047059 108.188976,11.9117647 107.968504,10.8635294 Z M104.503937,17.7564706 C104.503937,18.9952941 104.440945,19.9482353 104.346457,20.6470588 C104.251969,21.3458824 104.062992,21.8541176 103.84252,22.14 C103.590551,22.4258824 103.275591,22.5847059 102.897638,22.5847059 C102.582677,22.5847059 102.299213,22.5211765 102.047244,22.3623529 C101.795276,22.2035294 101.574803,21.9811765 101.417323,21.6952941 L101.417323,12.1023529 C101.543307,11.6576471 101.76378,11.2764706 102.07874,10.9588235 C102.393701,10.6729412 102.740157,10.5141176 103.086614,10.5141176 C103.464567,10.5141176 103.779528,10.6729412 103.968504,10.9588235 C104.188976,11.2764706 104.314961,11.7847059 104.409449,12.4835294 C104.503937,13.2141176 104.535433,14.2305882 104.535433,15.5329412 L104.535433,17.7564706 L104.503937,17.7564706 Z" id="Shape" fill="#1C2C49"></path>
                </g>
            </g>
        </g>
    </g>
</svg>